<svg xmlns="http://www.w3.org/2000/svg" width="160" height="50" viewBox="0 0 160 50">
  <g id="canshop-logo" transform="translate(-6856 60)">
    <rect id="Rectangle_54" data-name="Rectangle 54" width="160" height="50" transform="translate(6856 -60)" fill="none"/>
    <g id="Group_58" data-name="Group 58" transform="translate(6717.163 -366.841)">
      <path id="Path_17" data-name="Path 17" d="M168.578,369.628a2.889,2.889,0,1,1-2.889,2.888,2.888,2.888,0,0,1,2.889-2.888" transform="translate(-5.871 -27.025)" fill="#bbbdbf"/>
      <path id="Path_18" data-name="Path 18" d="M257.059,347.372a5.913,5.913,0,1,1,2.211-11.4,1.654,1.654,0,1,1-1.237,3.067,2.609,2.609,0,1,0,.744,4.377,1.654,1.654,0,0,1,2.183,2.486,5.9,5.9,0,0,1-3.9,1.469" transform="translate(-52.103 -8.586)" fill="#712d90"/>
      <path id="Path_19" data-name="Path 19" d="M392.907,347.4a5.729,5.729,0,1,1,5.729-5.729,5.735,5.735,0,0,1-5.729,5.729m0-8.15a2.421,2.421,0,1,0,2.421,2.421,2.424,2.424,0,0,0-2.421-2.421" transform="translate(-125.697 -8.803)" fill="#002f87"/>
      <path id="Path_20" data-name="Path 20" d="M280.181,335.947a5.729,5.729,0,1,0,2.732,10.767,1.653,1.653,0,0,0,3-.963v-4.075a5.735,5.735,0,0,0-5.729-5.729m0,8.15a2.42,2.42,0,1,1,1.712-.709,2.424,2.424,0,0,1-1.712.709" transform="translate(-64.712 -8.803)" fill="#712d90"/>
      <path id="Path_21" data-name="Path 21" d="M421.206,335.947a5.735,5.735,0,0,0-5.729,5.729v7.239a1.654,1.654,0,0,0,3.308,0v-2.049a5.728,5.728,0,1,0,2.421-10.92m0,8.15a2.421,2.421,0,1,1,2.421-2.421,2.424,2.424,0,0,1-2.421,2.421" transform="translate(-141.007 -8.803)" fill="#002f87"/>
      <path id="Path_22" data-name="Path 22" d="M308.076,335.947a5.735,5.735,0,0,0-5.729,5.729v4.075a1.654,1.654,0,0,0,3.308,0v-4.075a2.421,2.421,0,0,1,4.842,0v4.075a1.654,1.654,0,0,0,3.308,0v-4.075a5.735,5.735,0,0,0-5.728-5.729" transform="translate(-79.803 -8.803)" fill="#712d90"/>
      <path id="Path_23" data-name="Path 23" d="M364.746,332.143a5.689,5.689,0,0,0-2.421.538V330.84a1.654,1.654,0,0,0-3.308,0v11.254a1.654,1.654,0,0,0,3.308,0v-4.221a2.421,2.421,0,0,1,4.842,0v4.221a1.654,1.654,0,0,0,3.308,0v-4.221a5.735,5.735,0,0,0-5.729-5.729" transform="translate(-110.462 -5.145)" fill="#002f87"/>
      <path id="Path_24" data-name="Path 24" d="M333.747,347.781h-1.395a1.654,1.654,0,1,1,0-3.308h1.395c.767,0,1.026-.256,1.026-1.013v-2.817a4.1,4.1,0,0,1,4.334-4.321h1.4a1.654,1.654,0,0,1,0,3.308h-1.4c-.767,0-1.026.256-1.026,1.013v2.817a4.1,4.1,0,0,1-4.333,4.321" transform="translate(-95.141 -9.007)" fill="#002f87"/>
      <path id="Path_25" data-name="Path 25" d="M190.51,343.741a9.306,9.306,0,0,1,0-18.613h.723a2.7,2.7,0,1,1,0,5.393h-.723a3.913,3.913,0,0,0,0,7.826h4.74a2.7,2.7,0,1,1,0,5.393Z" transform="translate(-14.265 -2.95)" fill="#712d90"/>
      <path id="Path_26" data-name="Path 26" d="M194.944,369.628a2.889,2.889,0,1,1-2.889,2.888,2.889,2.889,0,0,1,2.889-2.888" transform="translate(-20.135 -27.025)" fill="#712d90"/>
      <path id="Path_27" data-name="Path 27" d="M221.343,369.628a2.889,2.889,0,1,1-2.889,2.888,2.889,2.889,0,0,1,2.889-2.888" transform="translate(-34.417 -27.025)" fill="#002f87"/>
      <path id="Path_28" data-name="Path 28" d="M176.969,328.577h-.723a2.888,2.888,0,0,0-1.476.407v4.826c0,.062-.006.113-.007.172a2.885,2.885,0,0,0,1.483.411h3.895c.012-.192.023-.385.023-.583v-7.072a3.7,3.7,0,0,1-3.194,1.839m4.8-8.9a7.054,7.054,0,0,0-4.6,1.507,3.674,3.674,0,0,1,3.47,4.134,1.99,1.99,0,0,1,1.131-.248H186a7.62,7.62,0,0,1,1.964-4.046,7.234,7.234,0,0,1,1.748-1.347ZM166.707,335.4h-2.564a3.913,3.913,0,1,1,0-7.826h2.564a10.37,10.37,0,0,1,5.1-5.393h-7.664a9.306,9.306,0,1,0,0,18.613h4.74c.029,0,.058,0,.087,0s.058,0,.087,0h2.749a10.371,10.371,0,0,1-5.1-5.393" transform="translate(0 -0.001)" fill="#bbbdbf"/>
      <path id="Path_29" data-name="Path 29" d="M209.008,340.791a2.7,2.7,0,1,1,0-5.393h4.1c1.219,0,1.61-.386,1.61-1.589v-7.152a7.01,7.01,0,0,1,1.817-4.942,6.868,6.868,0,0,1,5.186-2.04h2.242a2.7,2.7,0,1,1,0,5.393h-2.242c-1.219,0-1.61.386-1.61,1.589v7.152a7.009,7.009,0,0,1-1.817,4.942,6.868,6.868,0,0,1-5.186,2.04Z" transform="translate(-27.848)" fill="#002f87"/>
    </g>
  </g>
</svg>
