<svg width="21" height="19" fill="none" xmlns="http://www.w3.org/2000/svg"><path d="M3.31 6.441c0-1.751 1.392-3.152 3.322-3.152 1.058 0 2.133.49 2.81 1.26a1.41 1.41 0 0 0 2.116 0c.677-.77 1.752-1.26 2.81-1.26 1.93 0 3.322 1.4 3.322 3.152 0 1.02-.706 2.394-2.272 4.164-1.306 1.476-3.029 3.034-4.918 4.66-1.89-1.626-3.612-3.184-4.918-4.66C4.016 8.835 3.31 7.46 3.31 6.44ZM6.632.5C3.235.5.5 3.066.5 6.441c0 2.122 1.356 4.178 2.97 6.004 1.666 1.883 3.888 3.824 6.116 5.72a1.412 1.412 0 0 0 1.828 0c2.228-1.896 4.45-3.837 6.115-5.72C19.144 10.62 20.5 8.563 20.5 6.441 20.5 3.066 17.765.5 14.368.5 12.983.5 11.61.96 10.5 1.758A6.694 6.694 0 0 0 6.632.5Z" fill="#A73AFD" stroke="#fff" stroke-linejoin="round"/><path fill-rule="evenodd" clip-rule="evenodd" d="M14.5 1c2.554.01 4.535 1.597 5.23 4.024.369 1.285.14 2.669-.452 3.867-2.231 4.512-7.367 7.741-8.03 8.73a1.656 1.656 0 0 1-1.496 0c-.9-.848-2.239-1.915-3.618-3.21C1.732 10.276.461 1 6.5 1c1.78 0 2.706.52 4 1.5 1.013-.782 2.5-1.5 4-1.5Z" fill="#bf01ff"/></svg>